<svg width="460.91998291015625px" height="136.439990234375px" xmlns="http://www.w3.org/2000/svg" viewBox="19.540008544921875 6.780004882812506 460.91998291015625 136.439990234375" style="background:#596886" preserveAspectRatio="xMidYMid"><defs><filter id="editing-hover" x="-100%" y="-100%" width="300%" height="300%"><feFlood flood-color="#052b4a" result="flood"></feFlood><feComposite operator="in" in2="SourceAlpha" in="flood" result="shadow"></feComposite><feOffset dx="-3.5" dy="-3.5" in="SourceGraphic" result="offset-1"></feOffset><feOffset dx="3.5" dy="3.5" in="shadow" result="offset-2"></feOffset><feMerge><feMergeNode in="offset-2"></feMergeNode><feMergeNode in="offset-1"></feMergeNode></feMerge></filter></defs><g filter="url(#editing-hover)"><g transform="translate(87.984375, 98.51953125)"><path d="M41.15-34.43L41.15-34.43L41.15-10.69L41.15-10.69Q41.15-7.04 41.60-3.90L41.60-3.90L47.36-3.46L46.91 0.32L46.91 0.32Q42.69 0 37.57 0L37.57 0L30.02 0.32L29.70-2.88L34.75-3.90L34.75-3.90Q35.33-7.62 35.33-8.77L35.33-8.77L35.33-20.93L14.14-20.93L14.14-10.69L14.14-10.69Q14.14-7.04 14.59-3.90L14.59-3.90L20.35-3.46L19.90 0.32L19.90 0.32Q15.68 0 10.56 0L10.56 0L3.01 0.32L2.69-2.88L7.74-3.90L7.74-3.90Q8.32-7.68 8.32-8.77L8.32-8.77L8.32-36.35L8.32-36.35Q8.32-37.50 7.74-41.22L7.74-41.22L2.82-41.98L3.14-45.44L3.14-45.44Q9.28-45.12 10.56-45.12L10.56-45.12L19.33-45.44L19.58-41.66L14.59-41.22L14.59-41.22Q14.14-38.08 14.14-34.43L14.14-34.43L14.14-24.19L35.33-24.51L35.33-36.35L35.33-36.35Q35.33-37.50 34.75-41.22L34.75-41.22L29.82-41.98L30.14-45.44L30.14-45.44Q36.29-45.12 37.57-45.12L37.57-45.12L46.34-45.44L46.59-41.66L41.60-41.22L41.60-41.22Q41.15-38.08 41.15-34.43ZM68.48-30.66L62.27-30.66L61.95-25.92L61.95-19.07L61.95-19.07Q62.72-19.01 63.81-19.01L63.81-19.01L67.20-19.01L69.95-19.39L70.40-22.53L72.96-22.34L72.96-22.34Q72.90-19.26 72.90-18.30L72.90-18.30L73.02-12.74L70.40-12.42L69.95-15.55L69.95-15.55Q67.20-15.81 66.18-15.81L66.18-15.81L63.94-15.81L63.94-15.81Q62.66-15.81 61.95-15.68L61.95-15.68L61.95-8.51L61.95-8.51Q61.95-5.63 62.27-3.26L62.27-3.26L69.12-3.26L69.12-3.26Q70.91-3.26 73.28-3.71L73.28-3.71L73.28-3.71Q74.18-4.99 74.30-5.57L74.30-5.57L74.30-5.57Q74.94-8.26 75.01-8.64L75.01-8.64L78.02-8.38L77.25-0.70L76.29 0.19L76.29 0.19Q71.62 0 70.59 0L70.59 0L58.05 0L52.42 0.26L52.22-2.56L55.94-3.20L55.94-3.20Q56.38-5.25 56.38-7.04L56.38-7.04L56.38-26.24L56.38-26.24Q56.38-27.84 55.94-30.53L55.94-30.53L52.29-31.10L52.54-34.11L52.54-34.11Q56.77-33.86 58.05-33.86L58.05-33.86L69.95-33.86L75.65-34.30L76.61-33.47L76.93-26.56L73.79-26.30L73.79-26.30Q73.66-27.97 73.28-28.99L73.28-28.99L73.28-28.99Q73.28-29.38 72.45-30.46L72.45-30.46L72.45-30.46Q69.38-30.66 68.48-30.66L68.48-30.66ZM83.20-2.56L86.91-3.20L87.36-7.04L87.36-26.24L87.36-26.24Q87.36-27.39 87.14-28.86L87.14-28.86L87.14-28.86Q86.91-30.34 86.91-30.53L86.91-30.53L83.26-31.10L83.52-34.11L83.52-34.11Q87.62-33.86 89.02-33.86L89.02-33.86L96.83-34.11L97.02-30.85L93.31-30.53L93.31-30.53Q92.93-28.42 92.93-25.92L92.93-25.92L92.93-8.51L92.93-8.51Q92.93-5.76 93.31-3.26L93.31-3.26L98.82-3.26L98.82-3.26Q100.61-3.26 102.98-3.71L102.98-3.71L102.98-3.71Q104.19-5.50 104.70-8.64L104.70-8.64L107.71-8.38L106.94-0.70L105.98 0.19L105.98 0.19Q101.31 0 100.29 0L100.29 0L89.02 0L83.39 0.26L83.20-2.56ZM116.54-33.86L116.54-33.86L126.53-34.30L126.53-34.30Q131.84-34.30 134.85-31.65L134.85-31.65L134.85-31.65Q137.86-28.99 137.86-24.10L137.86-24.10L137.86-24.10Q137.86-19.20 134.18-16.38L134.18-16.38L134.18-16.38Q130.50-13.57 125.18-13.57L125.18-13.57L121.28-13.57L121.28-8.51L121.28-8.51Q121.28-7.42 121.66-3.20L121.66-3.20L126.08-2.88L125.76 0.26L125.76 0.26Q121.92 0 117.38 0L117.38 0L111.74 0.26L111.55-2.56L115.26-3.20L115.26-3.20Q115.26-3.20 115.71-7.04L115.71-7.04L115.71-26.24L115.71-26.24Q115.71-27.39 115.49-28.86L115.49-28.86L115.49-28.86Q115.26-30.34 115.26-30.53L115.26-30.53L111.62-31.10L111.87-34.11L111.87-34.11Q114.82-33.92 116.54-33.86ZM121.28-25.92L121.28-25.92L121.28-16.64L121.28-16.64Q122.30-16.58 123.90-16.58L123.90-16.58L123.90-16.58Q127.74-16.58 129.92-18.50L129.92-18.50L129.92-18.50Q132.10-20.42 132.10-24.03L132.10-24.03L132.10-24.03Q132.10-27.65 130.02-29.50L130.02-29.50L130.02-29.50Q127.94-31.36 124.16-31.36L124.16-31.36L124.16-31.36Q123.78-31.36 121.60-31.23L121.60-31.23L121.60-31.23Q121.28-28.16 121.28-25.92ZM150.46-13.82L136.70-13.82L136.58-18.62L150.78-18.62L150.46-13.82ZM161.09-11.90L161.09-8.83L161.09-8.83Q161.09-7.68 161.79-4.61L161.79-4.61L161.79-4.61Q166.14-2.88 170.08-2.88L170.08-2.88L170.08-2.88Q174.02-2.88 176.29-4.96L176.29-4.96L176.29-4.96Q178.56-7.04 178.56-10.88L178.56-10.88L178.56-10.88Q178.56-13.31 176.93-15.30L176.93-15.30L176.93-15.30Q175.30-17.28 172.90-18.53L172.90-18.53L172.90-18.53Q170.50-19.78 167.65-21.31L167.65-21.31L167.65-21.31Q164.80-22.85 162.40-24.35L162.40-24.35L162.40-24.35Q160-25.86 158.37-28.42L158.37-28.42L158.37-28.42Q156.74-30.98 156.74-34.24L156.74-34.24L156.74-34.24Q156.74-39.81 160.61-42.94L160.61-42.94L160.61-42.94Q164.48-46.08 169.92-46.08L169.92-46.08L169.92-46.08Q175.36-46.08 183.55-44.03L183.55-44.03L182.66-34.37L178.88-34.75L178.88-37.57L178.88-37.57Q178.88-37.95 178.05-41.15L178.05-41.15L178.05-41.15Q174.78-42.56 171.04-42.56L171.04-42.56L171.04-42.56Q167.30-42.56 165.22-40.70L165.22-40.70L165.22-40.70Q163.14-38.85 163.14-35.46L163.14-35.46L163.14-35.46Q163.14-31.62 167.55-28.86L167.55-28.86L167.55-28.86Q169.47-27.65 171.84-26.46L171.84-26.46L171.84-26.46Q174.21-25.28 176.58-23.94L176.58-23.94L176.58-23.94Q178.94-22.59 180.90-20.99L180.90-20.99L180.90-20.99Q182.85-19.39 184.06-16.99L184.06-16.99L184.06-16.99Q185.28-14.59 185.28-11.65L185.28-11.65L185.28-11.65Q185.28-5.50 180.99-2.27L180.99-2.27L180.99-2.27Q176.70 0.96 169.98 0.96L169.98 0.96L169.98 0.96Q166.14 0.96 162.62 0.10L162.62 0.10L162.62 0.10Q159.10-0.77 157.50-1.60L157.50-1.60L155.90-2.43L156.86-12.29L161.09-11.90ZM191.23-2.56L194.94-3.20L195.39-7.04L195.39-26.24L195.39-26.24Q195.39-27.39 195.17-28.86L195.17-28.86L195.17-28.86Q194.94-30.34 194.94-30.53L194.94-30.53L191.30-31.10L191.55-34.11L191.55-34.11Q195.65-33.86 197.06-33.86L197.06-33.86L204.86-34.11L205.06-30.85L201.34-30.53L201.34-30.53Q200.96-28.42 200.96-25.92L200.96-25.92L200.96-18.37L216.64-18.56L216.64-26.24L216.64-26.24Q216.64-27.39 216.42-28.86L216.42-28.86L216.42-28.86Q216.19-30.34 216.19-30.53L216.19-30.53L212.54-31.10L212.74-34.11L212.74-34.11Q216.83-33.86 218.30-33.86L218.30-33.86L226.05-34.11L226.30-30.85L222.59-30.53L222.59-30.53Q222.21-28.42 222.21-25.92L222.21-25.92L222.21-8.51L222.21-8.51Q222.21-5.31 222.59-3.20L222.59-3.20L226.69-2.88L226.37 0.26L226.37 0.26Q222.78 0 218.30 0L218.30 0L212.67 0.26L212.42-2.56L216.19-3.20L216.64-7.04L216.64-15.23L200.96-15.23L200.96-8.51L200.96-8.51Q200.96-7.42 201.34-3.20L201.34-3.20L205.44-2.88L205.12 0.26L205.12 0.26Q201.60 0 197.06 0L197.06 0L191.42 0.26L191.23-2.56ZM248.13-30.66L241.92-30.66L241.60-25.92L241.60-19.07L241.60-19.07Q242.37-19.01 243.46-19.01L243.46-19.01L246.85-19.01L249.60-19.39L250.05-22.53L252.61-22.34L252.61-22.34Q252.54-19.26 252.54-18.30L252.54-18.30L252.67-12.74L250.05-12.42L249.60-15.55L249.60-15.55Q246.85-15.81 245.82-15.81L245.82-15.81L243.58-15.81L243.58-15.81Q242.30-15.81 241.60-15.68L241.60-15.68L241.60-8.51L241.60-8.51Q241.60-5.63 241.92-3.26L241.92-3.26L248.77-3.26L248.77-3.26Q250.56-3.26 252.93-3.71L252.93-3.71L252.93-3.71Q253.82-4.99 253.95-5.57L253.95-5.57L253.95-5.57Q254.59-8.26 254.66-8.64L254.66-8.64L257.66-8.38L256.90-0.70L255.94 0.19L255.94 0.19Q251.26 0 250.24 0L250.24 0L237.70 0L232.06 0.26L231.87-2.56L235.58-3.20L235.58-3.20Q236.03-5.25 236.03-7.04L236.03-7.04L236.03-26.24L236.03-26.24Q236.03-27.84 235.58-30.53L235.58-30.53L231.94-31.10L232.19-34.11L232.19-34.11Q236.42-33.86 237.70-33.86L237.70-33.86L249.60-33.86L255.30-34.30L256.26-33.47L256.58-26.56L253.44-26.30L253.44-26.30Q253.31-27.97 252.93-28.99L252.93-28.99L252.93-28.99Q252.93-29.38 252.10-30.46L252.10-30.46L252.10-30.46Q249.02-30.66 248.13-30.66L248.13-30.66ZM279.10-30.66L272.90-30.66L272.58-25.92L272.58-19.07L272.58-19.07Q273.34-19.01 274.43-19.01L274.43-19.01L277.82-19.01L280.58-19.39L281.02-22.53L283.58-22.34L283.58-22.34Q283.52-19.26 283.52-18.30L283.52-18.30L283.65-12.74L281.02-12.42L280.58-15.55L280.58-15.55Q277.82-15.81 276.80-15.81L276.80-15.81L274.56-15.81L274.56-15.81Q273.28-15.81 272.58-15.68L272.58-15.68L272.58-8.51L272.58-8.51Q272.58-5.63 272.90-3.26L272.90-3.26L279.74-3.26L279.74-3.26Q281.54-3.26 283.90-3.71L283.90-3.71L283.90-3.71Q284.80-4.99 284.93-5.57L284.93-5.57L284.93-5.57Q285.57-8.26 285.63-8.64L285.63-8.64L288.64-8.38L287.87-0.70L286.91 0.19L286.91 0.19Q282.24 0 281.22 0L281.22 0L268.67 0L263.04 0.26L262.85-2.56L266.56-3.20L266.56-3.20Q267.01-5.25 267.01-7.04L267.01-7.04L267.01-26.24L267.01-26.24Q267.01-27.84 266.56-30.53L266.56-30.53L262.91-31.10L263.17-34.11L263.17-34.11Q267.39-33.86 268.67-33.86L268.67-33.86L280.58-33.86L286.27-34.30L287.23-33.47L287.55-26.56L284.42-26.30L284.42-26.30Q284.29-27.97 283.90-28.99L283.90-28.99L283.90-28.99Q283.90-29.38 283.07-30.46L283.07-30.46L283.07-30.46Q280-30.66 279.10-30.66L279.10-30.66ZM312.96-30.66L312.96-30.66L309.95-30.66L309.95-30.66Q309.57-27.97 309.57-25.92L309.57-25.92L309.57-8.51L309.57-8.51Q309.57-5.31 309.95-3.20L309.95-3.20L314.05-2.88L313.73 0.26L313.73 0.26Q310.14 0 305.66 0L305.66 0L300.03 0.26L299.78-2.56L303.49-3.20L303.49-3.20Q303.94-5.25 303.94-7.04L303.94-7.04L303.94-26.24L303.94-26.24Q303.94-27.78 303.49-30.66L303.49-30.66L300.61-30.66L300.61-30.66Q298.75-30.66 296.58-30.40L296.58-30.40L296.58-30.40Q295.81-29.38 295.65-28.54L295.65-28.54L295.65-28.54Q295.49-27.71 295.30-25.92L295.30-25.92L292.16-26.11L292.48-33.47L293.44-34.30L293.44-34.30Q298.11-33.86 299.14-33.86L299.14-33.86L314.37-33.86L320.06-34.30L321.02-33.47L321.34-26.11L318.27-25.92L318.27-25.92Q318.27-26.05 318.08-27.30L318.08-27.30L318.08-27.30Q317.89-28.54 317.79-28.96L317.79-28.96L317.79-28.96Q317.70-29.38 316.93-30.40L316.93-30.40L316.93-30.40Q314.88-30.66 312.96-30.66Z" fill="#ffd5af"></path></g></g><style>text {
  font-size: 64px;
  font-family: Arial Black;
  dominant-baseline: central;
  text-anchor: middle;
}</style></svg>