<svg width="475.52000732421874px" height="156.839990234375px" xmlns="http://www.w3.org/2000/svg" viewBox="12.23999633789063 -3.419995117187497 475.52000732421874 156.839990234375" style="background:#596886" preserveAspectRatio="xMidYMid"><defs><filter id="editing-hover" x="-100%" y="-100%" width="300%" height="300%"><feFlood flood-color="#052b4a" result="flood"></feFlood><feComposite operator="in" in2="SourceAlpha" in="flood" result="shadow"></feComposite><feOffset dx="-3.5" dy="-3.5" in="SourceGraphic" result="offset-1"></feOffset><feOffset dx="3.5" dy="3.5" in="shadow" result="offset-2"></feOffset><feMerge><feMergeNode in="offset-2"></feMergeNode><feMergeNode in="offset-1"></feMergeNode></feMerge></filter></defs><g filter="url(#editing-hover)"><g transform="translate(82.76551055908203, 107.54492378234863)"><path d="M33.28-41.16L33.28-41.16L33.28-41.16Q33.28-42.28 33.48-42.70L33.48-42.70L33.48-42.70Q33.69-43.13 34.31-43.28L34.31-43.28L45.06-45.88L45.06-45.88Q45.47-46 45.91-46L45.91-46L45.91-46Q46.34-46 46.50-45.73L46.50-45.73L46.50-45.73Q46.66-45.47 46.66-44.66L46.66-44.66L46.28-39.75L46.28-39.75Q46.13-37.59 45.94-35.47L45.94-35.47L45.94-35.47Q45.75-33.34 45.38-31.75L45.38-31.75L44.81-27.31L44.81-27.31Q44.56-25.34 44.34-23.05L44.34-23.05L44.34-23.05Q44.13-20.75 43.88-17.91L43.88-17.91L42.41-2.50L42.41-2.50Q42.38-2.22 42.28-1.94L42.28-1.94L42.28-1.94Q42.19-1.66 41.88-1.53L41.88-1.53L41.88-1.53Q41.66-1.44 40.86-1.13L40.86-1.13L40.86-1.13Q40.06-0.81 38.97-0.41L38.97-0.41L38.97-0.41Q37.88 0 36.63 0.45L36.63 0.45L36.63 0.45Q35.38 0.91 34.25 1.28L34.25 1.28L34.25 1.28Q33.13 1.66 32.25 1.91L32.25 1.91L32.25 1.91Q31.38 2.16 31.06 2.16L31.06 2.16L31.06 2.16Q30.63 2.16 30.30 1.92L30.30 1.92L30.30 1.92Q29.97 1.69 29.97 1.03L29.97 1.03L29.97 1.03Q29.97-2.75 30.41-6.70L30.41-6.70L30.41-6.70Q30.84-10.66 31.19-14.56L31.19-14.56L31.19-14.56Q31.25-15 31.23-15.38L31.23-15.38L31.23-15.38Q31.22-15.75 31.28-16.19L31.28-16.19L19.84-16.19L18.56-2.50L18.56-2.50Q18.53-2.22 18.45-1.95L18.45-1.95L18.45-1.95Q18.38-1.69 18.03-1.53L18.03-1.53L18.03-1.53Q17.91-1.47 16.80-1.08L16.80-1.08L16.80-1.08Q15.69-0.69 14.23-0.17L14.23-0.17L14.23-0.17Q12.78 0.34 11.36 0.86L11.36 0.86L11.36 0.86Q9.94 1.38 9.19 1.66L9.19 1.66L9.19 1.66Q8.81 1.81 8.27 1.98L8.27 1.98L8.27 1.98Q7.72 2.16 7.19 2.16L7.19 2.16L7.19 2.16Q6.75 2.16 6.42 1.91L6.42 1.91L6.42 1.91Q6.09 1.66 6.09 1L6.09 1L6.09 1Q6.09-0.50 6.20-2.42L6.20-2.42L6.20-2.42Q6.31-4.34 6.47-6.45L6.47-6.45L6.47-6.45Q6.63-8.56 6.84-10.78L6.84-10.78L6.84-10.78Q7.06-13 7.28-15.16L7.28-15.16L7.34-16.06L7.34-16.06Q4.81-16.06 3.67-16.20L3.67-16.20L3.67-16.20Q2.53-16.34 2.53-16.94L2.53-16.94L2.53-16.94Q2.53-17.34 3-18L3-18L3-18Q3.63-18.88 4.45-20.11L4.45-20.11L4.45-20.11Q5.28-21.34 6.05-22.55L6.05-22.55L6.05-22.55Q6.81-23.75 7.42-24.70L7.42-24.70L7.42-24.70Q8.03-25.66 8.22-25.94L8.22-25.94L8.94-33.47L8.94-33.47Q8.94-33.53 9-34.41L9-34.41L9-34.41Q9.06-35.28 9.16-36.48L9.16-36.48L9.16-36.48Q9.25-37.69 9.36-38.97L9.36-38.97L9.36-38.97Q9.47-40.25 9.56-41.16L9.56-41.16L9.56-41.16Q9.63-42.25 9.73-42.69L9.73-42.69L9.73-42.69Q9.84-43.13 10.47-43.28L10.47-43.28L21.09-45.88L21.09-45.88Q21.50-46 21.94-46L21.94-46L21.94-46Q22.38-46 22.53-45.73L22.53-45.73L22.53-45.73Q22.69-45.47 22.69-44.66L22.69-44.66L22.69-44.66Q22.47-42.41 22.34-40.56L22.34-40.56L22.34-40.56Q22.22-38.72 22.08-37.13L22.08-37.13L22.08-37.13Q21.94-35.53 21.78-34.09L21.78-34.09L21.78-34.09Q21.63-32.66 21.34-31.16L21.34-31.16L20.72-26.31L32.06-26.44L32.06-26.44Q32.34-30.59 32.69-33.50L32.69-33.50L32.69-33.50Q33.03-36.41 33.13-38.09L33.13-38.09L33.13-38.09Q33.22-39.69 33.25-40.38L33.25-40.38L33.25-40.38Q33.28-41.06 33.28-41.16ZM68.13-34.88L68.13-34.88L68.13-34.88Q71.09-34.88 73.52-33.77L73.52-33.77L73.52-33.77Q75.94-32.66 77.67-30.89L77.67-30.89L77.67-30.89Q79.41-29.13 80.34-26.94L80.34-26.94L80.34-26.94Q81.28-24.75 81.28-22.56L81.28-22.56L81.28-22.56Q81.28-20.63 80.09-18.67L80.09-18.67L80.09-18.67Q78.91-16.72 76.77-15.16L76.77-15.16L76.77-15.16Q74.63-13.59 71.63-12.63L71.63-12.63L71.63-12.63Q68.63-11.66 65.03-11.66L65.03-11.66L65.03-11.66Q63.16-11.66 61.09-12.03L61.09-12.03L61.09-12.03Q61.22-10.69 61.88-9.72L61.88-9.72L61.88-9.72Q62.53-8.75 63.53-8.13L63.53-8.13L63.53-8.13Q64.53-7.50 65.80-7.20L65.80-7.20L65.80-7.20Q67.06-6.91 68.41-6.91L68.41-6.91L68.41-6.91Q69.91-6.91 71.30-7.17L71.30-7.17L71.30-7.17Q72.69-7.44 73.97-7.88L73.97-7.88L73.97-7.88Q75.25-8.31 76.44-8.84L76.44-8.84L76.44-8.84Q77.63-9.38 78.69-9.91L78.69-9.91L78.69-9.91Q78.97-9.97 79.17-10.02L79.17-10.02L79.17-10.02Q79.38-10.06 79.56-10.06L79.56-10.06L79.56-10.06Q79.56-10.06 79.55-9.56L79.55-9.56L79.55-9.56Q79.53-9.06 79.53-8.16L79.53-8.16L79.53-8.16Q79.53-7.25 79.52-5.97L79.52-5.97L79.52-5.97Q79.50-4.69 79.47-3.13L79.47-3.13L79.47-3.13Q79.56-2.97 79.59-2.81L79.59-2.81L79.59-2.81Q79.63-2.66 79.63-2.56L79.63-2.56L79.63-2.56Q79.63-2.19 78.94-1.75L78.94-1.75L78.94-1.75Q78.25-1.31 77.14-0.84L77.14-0.84L77.14-0.84Q76.03-0.38 74.61 0.06L74.61 0.06L74.61 0.06Q73.19 0.50 71.72 0.86L71.72 0.86L71.72 0.86Q70.25 1.22 68.88 1.42L68.88 1.42L68.88 1.42Q67.50 1.63 66.47 1.63L66.47 1.63L66.47 1.63Q63.09 1.63 59.92 0.45L59.92 0.45L59.92 0.45Q56.75-0.72 54.30-2.91L54.30-2.91L54.30-2.91Q51.84-5.09 50.38-8.22L50.38-8.22L50.38-8.22Q48.91-11.34 48.91-15.25L48.91-15.25L48.91-15.25Q48.91-19.34 50.31-22.92L50.31-22.92L50.31-22.92Q51.72-26.50 54.27-29.16L54.27-29.16L54.27-29.16Q56.81-31.81 60.34-33.34L60.34-33.34L60.34-33.34Q63.88-34.88 68.13-34.88ZM67.75-26.56L67.75-26.56L67.75-26.56Q66.47-26.56 65.39-26.02L65.39-26.02L65.39-26.02Q64.31-25.47 63.42-24.45L63.42-24.45L63.42-24.45Q62.53-23.44 61.88-22.02L61.88-22.02L61.88-22.02Q61.22-20.59 60.81-18.88L60.81-18.88L60.81-18.88Q64.03-19.44 66.16-20.06L66.16-20.06L66.16-20.06Q68.28-20.69 69.56-21.33L69.56-21.33L69.56-21.33Q70.84-21.97 71.38-22.61L71.38-22.61L71.38-22.61Q71.91-23.25 71.91-23.84L71.91-23.84L71.91-23.84Q71.91-24.41 71.48-24.91L71.48-24.91L71.48-24.91Q71.06-25.41 70.44-25.78L70.44-25.78L70.44-25.78Q69.81-26.16 69.08-26.36L69.08-26.36L69.08-26.36Q68.34-26.56 67.75-26.56ZM87.34-26.44L87.34-26.44L87.34-26.44Q87.72-30.72 87.95-34.91L87.95-34.91L87.95-34.91Q88.19-39.09 88.47-43.50L88.47-43.50L88.47-43.50Q88.53-44.53 88.67-44.92L88.67-44.92L88.67-44.92Q88.81-45.31 89.38-45.44L89.38-45.44L89.38-45.44Q92.28-45.97 95.20-46.52L95.20-46.52L95.20-46.52Q98.13-47.06 101.06-47.97L101.06-47.97L101.06-47.97Q101.16-48 101.34-48L101.34-48L101.34-48Q101.69-48 101.69-47.69L101.69-47.69L97.63-3.06L97.63-2.53L97.63-2.53Q97.63-2.25 97.41-2.08L97.41-2.08L97.41-2.08Q97.19-1.91 96.38-1.69L96.38-1.69L88.19 1.31L88.19 1.31Q87.84 1.47 87.28 1.64L87.28 1.64L87.28 1.64Q86.72 1.81 86.19 1.81L86.19 1.81L86.19 1.81Q85.75 1.81 85.42 1.59L85.42 1.59L85.42 1.59Q85.09 1.38 85.09 0.84L85.09 0.84L85.09 0.66L85.09 0.66Q85.34-2.50 85.58-5.52L85.58-5.52L85.58-5.52Q85.81-8.53 86.08-11.75L86.08-11.75L86.08-11.75Q86.34-14.97 86.66-18.56L86.66-18.56L86.66-18.56Q86.97-22.16 87.34-26.44ZM118.69-22.28L118.59-21.81L118.59-21.81Q118.41-18.81 118.27-16.94L118.27-16.94L118.27-16.94Q118.13-15.06 118.03-13.89L118.03-13.89L118.03-13.89Q117.94-12.72 117.88-12.05L117.88-12.05L117.88-12.05Q117.81-11.38 117.78-10.78L117.78-10.78L117.78-10.78Q118.50-8.91 119.91-7.73L119.91-7.73L119.91-7.73Q121.31-6.56 123.28-6.56L123.28-6.56L123.28-6.56Q125-6.56 126.30-7.64L126.30-7.64L126.30-7.64Q127.59-8.72 128.45-10.44L128.45-10.44L128.45-10.44Q129.31-12.16 129.75-14.28L129.75-14.28L129.75-14.28Q130.19-16.41 130.19-18.50L130.19-18.50L130.19-18.50Q130.19-20.22 129.89-21.69L129.89-21.69L129.89-21.69Q129.59-23.16 129-24.23L129-24.23L129-24.23Q128.41-25.31 127.52-25.92L127.52-25.92L127.52-25.92Q126.63-26.53 125.41-26.53L125.41-26.53L125.41-26.53Q124.41-26.53 123.42-26.14L123.42-26.14L123.42-26.14Q122.44-25.75 121.53-25.14L121.53-25.14L121.53-25.14Q120.63-24.53 119.89-23.77L119.89-23.77L119.89-23.77Q119.16-23 118.69-22.28L118.69-22.28ZM119.22-30.97L119.22-30.97L119.22-30.97Q121.84-32.75 124.72-33.81L124.72-33.81L124.72-33.81Q127.59-34.88 130.72-34.88L130.72-34.88L130.72-34.88Q133.66-34.88 135.80-33.67L135.80-33.67L135.80-33.67Q137.94-32.47 139.34-30.42L139.34-30.42L139.34-30.42Q140.75-28.38 141.42-25.72L141.42-25.72L141.42-25.72Q142.09-23.06 142.09-20.16L142.09-20.16L142.09-20.16Q142.09-17.63 141.59-15.03L141.59-15.03L141.59-15.03Q141.09-12.44 140.13-10.02L140.13-10.02L140.13-10.02Q139.16-7.59 137.72-5.47L137.72-5.47L137.72-5.47Q136.28-3.34 134.42-1.77L134.42-1.77L134.42-1.77Q132.56-0.19 130.28 0.72L130.28 0.72L130.28 0.72Q128 1.63 125.34 1.63L125.34 1.63L125.34 1.63Q123 1.63 120.86 0.69L120.86 0.69L120.86 0.69Q118.72-0.25 116.84-1.75L116.84-1.75L116.84-1.75Q116.84-1.59 116.77-0.61L116.77-0.61L116.77-0.61Q116.69 0.38 116.56 1.78L116.56 1.78L116.56 1.78Q116.44 3.19 116.28 4.80L116.28 4.80L116.28 4.80Q116.13 6.41 116 7.81L116 7.81L116 7.81Q115.88 9.22 115.80 10.20L115.80 10.20L115.80 10.20Q115.72 11.19 115.72 11.34L115.72 11.34L115.72 11.34Q115.72 11.59 115.73 11.77L115.73 11.77L115.73 11.77Q115.75 11.94 115.75 12.09L115.75 12.09L115.75 12.09Q115.75 12.34 115.52 12.52L115.52 12.52L115.52 12.52Q115.28 12.69 114.47 12.91L114.47 12.91L106.25 15L106.25 15Q105.91 15.09 105.34 15.30L105.34 15.30L105.34 15.30Q104.78 15.50 104.25 15.50L104.25 15.50L104.25 15.50Q103.81 15.50 103.48 15.28L103.48 15.28L103.48 15.28Q103.16 15.06 103.16 14.47L103.16 14.47L106.97-31.28L106.97-31.28Q107.06-32.31 107.20-32.70L107.20-32.70L107.20-32.70Q107.34-33.09 107.91-33.22L107.91-33.22L107.91-33.22Q110.75-33.78 113.75-34.36L113.75-34.36L113.75-34.36Q116.75-34.94 119.59-35.84L119.59-35.84L119.59-35.84Q119.84-35.84 119.89-35.77L119.89-35.77L119.89-35.77Q119.94-35.69 119.94-35.53L119.94-35.53L119.94-35.53Q119.94-35.47 119.92-35.34L119.92-35.34L119.92-35.34Q119.91-35.22 119.83-34.78L119.83-34.78L119.83-34.78Q119.75-34.34 119.61-33.45L119.61-33.45L119.61-33.45Q119.47-32.56 119.22-30.97ZM161.50-0.47L160.97-11.63L160.97-11.63Q160.97-11.66 160.95-11.69L160.95-11.69L160.95-11.69Q160.94-11.72 160.94-11.75L160.94-11.75L160.94-11.75Q160.94-12.28 161.50-12.28L161.50-12.28L161.50-12.28Q161.78-12.28 162.13-12L162.13-12L162.13-12Q163.81-10.41 165.88-9.47L165.88-9.47L165.88-9.47Q167.94-8.53 170.38-8.53L170.38-8.53L170.38-8.53Q171.03-8.53 171.88-8.67L171.88-8.67L171.88-8.67Q172.72-8.81 173.47-9.14L173.47-9.14L173.47-9.14Q174.22-9.47 174.73-10L174.73-10L174.73-10Q175.25-10.53 175.25-11.34L175.25-11.34L175.25-11.34Q175.25-12.25 174.81-12.97L174.81-12.97L174.81-12.97Q174.38-13.69 173.66-14.19L173.66-14.19L173.66-14.19Q173.38-14.38 172.81-14.81L172.81-14.81L172.81-14.81Q172.25-15.25 171.53-15.81L171.53-15.81L171.53-15.81Q170.81-16.38 170.03-17.02L170.03-17.02L170.03-17.02Q169.25-17.66 168.55-18.23L168.55-18.23L168.55-18.23Q167.84-18.81 167.28-19.28L167.28-19.28L167.28-19.28Q166.72-19.75 166.44-20L166.44-20L166.44-20Q164.59-21.38 163.52-22.78L163.52-22.78L163.52-22.78Q162.44-24.19 161.88-25.72L161.88-25.72L161.88-25.72Q161.31-27.25 161.16-28.89L161.16-28.89L161.16-28.89Q161-30.53 161-32.38L161-32.38L161-32.38Q161-35.13 162.31-37.59L162.31-37.59L162.31-37.59Q163.63-40.06 166.02-41.89L166.02-41.89L166.02-41.89Q168.41-43.72 171.75-44.80L171.75-44.80L171.75-44.80Q175.09-45.88 179.19-45.88L179.19-45.88L179.19-45.88Q179.69-45.88 180.69-45.77L180.69-45.77L180.69-45.77Q181.69-45.66 182.89-45.41L182.89-45.41L182.89-45.41Q184.09-45.16 185.34-44.72L185.34-44.72L185.34-44.72Q186.59-44.28 187.63-43.59L187.63-43.59L187.63-43.59Q187.97-43.34 188.17-43.09L188.17-43.09L188.17-43.09Q188.38-42.84 188.44-42.31L188.44-42.31L188.44-42.31Q188.59-39.78 188.69-37.33L188.69-37.33L188.69-37.33Q188.78-34.88 188.94-32.13L188.94-32.13L188.94-32.13Q188.94-31.59 188.72-31.42L188.72-31.42L188.72-31.42Q188.50-31.25 188.16-31.25L188.16-31.25L188.16-31.25Q187.81-31.25 187.63-31.44L187.63-31.44L187.63-31.44Q186.72-32.34 185.75-33.22L185.75-33.22L185.75-33.22Q184.78-34.09 183.72-34.77L183.72-34.77L183.72-34.77Q182.66-35.44 181.45-35.84L181.45-35.84L181.45-35.84Q180.25-36.25 178.84-36.25L178.84-36.25L178.84-36.25Q178-36.25 177.16-36.11L177.16-36.11L177.16-36.11Q176.31-35.97 175.63-35.59L175.63-35.59L175.63-35.59Q174.94-35.22 174.52-34.56L174.52-34.56L174.52-34.56Q174.09-33.91 174.09-32.91L174.09-32.91L174.09-32.91Q174.09-31.84 174.36-31.06L174.36-31.06L174.36-31.06Q174.63-30.28 175.69-29.59L175.69-29.59L183.19-24.50L183.19-24.50Q185.25-23.03 186.53-21.58L186.53-21.58L186.53-21.58Q187.81-20.13 188.53-18.69L188.53-18.69L188.53-18.69Q189.25-17.25 189.52-15.86L189.52-15.86L189.52-15.86Q189.78-14.47 189.78-13.13L189.78-13.13L189.78-13.13Q189.78-10.94 189.06-9L189.06-9L189.06-9Q188.34-7.06 187.09-5.42L187.09-5.42L187.09-5.42Q185.84-3.78 184.17-2.48L184.17-2.48L184.17-2.48Q182.50-1.19 180.59-0.27L180.59-0.27L180.59-0.27Q178.69 0.66 176.64 1.14L176.64 1.14L176.64 1.14Q174.59 1.63 172.63 1.63L172.63 1.63L172.63 1.63Q171.09 1.63 169.61 1.58L169.61 1.58L169.61 1.58Q168.13 1.53 166.72 1.33L166.72 1.33L166.72 1.33Q165.31 1.13 164 0.70L164 0.70L164 0.70Q162.69 0.28 161.50-0.47L161.50-0.47ZM193.63 0.47L197.19-45.44L197.19-45.44Q197.19-45.63 197.17-45.78L197.17-45.78L197.17-45.78Q197.16-45.94 197.16-46.09L197.16-46.09L197.16-46.09Q197.16-46.38 197.38-46.58L197.38-46.58L197.38-46.58Q197.59-46.78 198.44-47L198.44-47L207.22-49.09L207.22-49.09Q207.56-49.16 208.13-49.38L208.13-49.38L208.13-49.38Q208.69-49.59 209.22-49.59L209.22-49.59L209.22-49.59Q210.31-49.59 210.31-48.59L210.31-48.59L210.31-48.59Q210.31-48.53 210.22-47.31L210.22-47.31L210.22-47.31Q210.13-46.09 209.97-44.28L209.97-44.28L209.97-44.28Q209.81-42.47 209.63-40.33L209.63-40.33L209.63-40.33Q209.44-38.19 209.25-36.25L209.25-36.25L209.25-36.25Q209.06-34.31 208.91-32.86L208.91-32.86L208.91-32.86Q208.75-31.41 208.66-30.97L208.66-30.97L208.66-30.97Q210.13-31.78 211.72-32.50L211.72-32.50L211.72-32.50Q213.31-33.22 214.92-33.75L214.92-33.75L214.92-33.75Q216.53-34.28 218.14-34.58L218.14-34.58L218.14-34.58Q219.75-34.88 221.25-34.88L221.25-34.88L221.25-34.88Q223.16-34.88 224.81-34.33L224.81-34.33L224.81-34.33Q226.47-33.78 227.70-32.52L227.70-32.52L227.70-32.52Q228.94-31.25 229.64-29.20L229.64-29.20L229.64-29.20Q230.34-27.16 230.34-24.19L230.34-24.19L230.34-24.19Q230.34-23.44 230.31-22.64L230.31-22.64L230.31-22.64Q230.28-21.84 230.19-21L230.19-21L228.84-8.22L228.84-8.22Q228.69-6.91 228.66-5.48L228.66-5.48L228.66-5.48Q228.63-4.06 228.63-2.56L228.63-2.56L228.63-2.56Q228.63-2.31 228.64-2.14L228.64-2.14L228.64-2.14Q228.66-1.97 228.66-1.84L228.66-1.84L228.66-1.84Q228.66-1.56 228.42-1.41L228.42-1.41L228.42-1.41Q228.19-1.25 227.38-1L227.38-1L219.72 1.13L219.72 1.13Q219.38 1.22 218.81 1.42L218.81 1.42L218.81 1.42Q218.25 1.63 217.72 1.63L217.72 1.63L217.72 1.63Q217.19 1.63 216.91 1.39L216.91 1.39L216.91 1.39Q216.63 1.16 216.63 0.47L216.63 0.47L216.63 0.47Q216.84-1.88 216.98-3.31L216.98-3.31L216.98-3.31Q217.13-4.75 217.20-5.61L217.20-5.61L217.20-5.61Q217.28-6.47 217.34-6.92L217.34-6.92L217.34-6.92Q217.41-7.38 217.44-7.73L217.44-7.73L217.44-7.73Q217.47-8.09 217.53-8.55L217.53-8.55L217.53-8.55Q217.59-9 217.67-9.88L217.67-9.88L217.67-9.88Q217.75-10.75 217.89-12.19L217.89-12.19L217.89-12.19Q218.03-13.63 218.25-15.97L218.25-15.97L218.25-15.97Q218.38-17.22 218.52-18.45L218.52-18.45L218.52-18.45Q218.66-19.69 218.66-20.72L218.66-20.72L218.66-20.72Q218.66-22.03 218.52-23.11L218.52-23.11L218.52-23.11Q218.38-24.19 218.02-24.95L218.02-24.95L218.02-24.95Q217.66-25.72 217.03-26.16L217.03-26.16L217.03-26.16Q216.41-26.59 215.44-26.59L215.44-26.59L215.44-26.59Q214.72-26.59 213.48-26.28L213.48-26.28L213.48-26.28Q212.25-25.97 211.02-25.25L211.02-25.25L211.02-25.25Q209.78-24.53 208.83-23.36L208.83-23.36L208.83-23.36Q207.88-22.19 207.75-20.47L207.75-20.47L207.75-20.47Q207.50-18.06 207.36-16.53L207.36-16.53L207.36-16.53Q207.22-15 207.13-14L207.13-14L207.13-14Q207.03-13 206.98-12.41L206.98-12.41L206.98-12.41Q206.94-11.81 206.91-11.31L206.91-11.31L206.91-11.31Q206.88-11.16 206.81-10.55L206.81-10.55L206.81-10.55Q206.75-9.94 206.66-9.09L206.66-9.09L206.66-9.09Q206.56-8.25 206.47-7.30L206.47-7.30L206.47-7.30Q206.38-6.34 206.30-5.50L206.30-5.50L206.30-5.50Q206.22-4.66 206.17-4.05L206.17-4.05L206.17-4.05Q206.13-3.44 206.13-3.28L206.13-3.28L206.13-3.28Q206.13-3.03 206.14-2.86L206.14-2.86L206.14-2.86Q206.16-2.69 206.16-2.53L206.16-2.53L206.16-2.53Q206.16-2.28 205.92-2.11L205.92-2.11L205.92-2.11Q205.69-1.94 204.88-1.72L204.88-1.72L196.72 1.13L196.72 1.13Q196.38 1.25 195.81 1.44L195.81 1.44L195.81 1.44Q195.25 1.63 194.72 1.63L194.72 1.63L194.72 1.63Q194.25 1.63 193.94 1.36L193.94 1.36L193.94 1.36Q193.63 1.09 193.63 0.47L193.63 0.47ZM253.75-34.88L253.75-34.88L253.75-34.88Q256.72-34.88 259.14-33.77L259.14-33.77L259.14-33.77Q261.56-32.66 263.30-30.89L263.30-30.89L263.30-30.89Q265.03-29.13 265.97-26.94L265.97-26.94L265.97-26.94Q266.91-24.75 266.91-22.56L266.91-22.56L266.91-22.56Q266.91-20.63 265.72-18.67L265.72-18.67L265.72-18.67Q264.53-16.72 262.39-15.16L262.39-15.16L262.39-15.16Q260.25-13.59 257.25-12.63L257.25-12.63L257.25-12.63Q254.25-11.66 250.66-11.66L250.66-11.66L250.66-11.66Q248.78-11.66 246.72-12.03L246.72-12.03L246.72-12.03Q246.84-10.69 247.50-9.72L247.50-9.72L247.50-9.72Q248.16-8.75 249.16-8.13L249.16-8.13L249.16-8.13Q250.16-7.50 251.42-7.20L251.42-7.20L251.42-7.20Q252.69-6.91 254.03-6.91L254.03-6.91L254.03-6.91Q255.53-6.91 256.92-7.17L256.92-7.17L256.92-7.17Q258.31-7.44 259.59-7.88L259.59-7.88L259.59-7.88Q260.88-8.31 262.06-8.84L262.06-8.84L262.06-8.84Q263.25-9.38 264.31-9.91L264.31-9.91L264.31-9.91Q264.59-9.97 264.80-10.02L264.80-10.02L264.80-10.02Q265-10.06 265.19-10.06L265.19-10.06L265.19-10.06Q265.19-10.06 265.17-9.56L265.17-9.56L265.17-9.56Q265.16-9.06 265.16-8.16L265.16-8.16L265.16-8.16Q265.16-7.25 265.14-5.97L265.14-5.97L265.14-5.97Q265.13-4.69 265.09-3.13L265.09-3.13L265.09-3.13Q265.19-2.97 265.22-2.81L265.22-2.81L265.22-2.81Q265.25-2.66 265.25-2.56L265.25-2.56L265.25-2.56Q265.25-2.19 264.56-1.75L264.56-1.75L264.56-1.75Q263.88-1.31 262.77-0.84L262.77-0.84L262.77-0.84Q261.66-0.38 260.23 0.06L260.23 0.06L260.23 0.06Q258.81 0.50 257.34 0.86L257.34 0.86L257.34 0.86Q255.88 1.22 254.50 1.42L254.50 1.42L254.50 1.42Q253.13 1.63 252.09 1.63L252.09 1.63L252.09 1.63Q248.72 1.63 245.55 0.45L245.55 0.45L245.55 0.45Q242.38-0.72 239.92-2.91L239.92-2.91L239.92-2.91Q237.47-5.09 236-8.22L236-8.22L236-8.22Q234.53-11.34 234.53-15.25L234.53-15.25L234.53-15.25Q234.53-19.34 235.94-22.92L235.94-22.92L235.94-22.92Q237.34-26.50 239.89-29.16L239.89-29.16L239.89-29.16Q242.44-31.81 245.97-33.34L245.97-33.34L245.97-33.34Q249.50-34.88 253.75-34.88ZM253.38-26.56L253.38-26.56L253.38-26.56Q252.09-26.56 251.02-26.02L251.02-26.02L251.02-26.02Q249.94-25.47 249.05-24.45L249.05-24.45L249.05-24.45Q248.16-23.44 247.50-22.02L247.50-22.02L247.50-22.02Q246.84-20.59 246.44-18.88L246.44-18.88L246.44-18.88Q249.66-19.44 251.78-20.06L251.78-20.06L251.78-20.06Q253.91-20.69 255.19-21.33L255.19-21.33L255.19-21.33Q256.47-21.97 257-22.61L257-22.61L257-22.61Q257.53-23.25 257.53-23.84L257.53-23.84L257.53-23.84Q257.53-24.41 257.11-24.91L257.11-24.91L257.11-24.91Q256.69-25.41 256.06-25.78L256.06-25.78L256.06-25.78Q255.44-26.16 254.70-26.36L254.70-26.36L254.70-26.36Q253.97-26.56 253.38-26.56ZM289.44-34.88L289.44-34.88L289.44-34.88Q292.41-34.88 294.83-33.77L294.83-33.77L294.83-33.77Q297.25-32.66 298.98-30.89L298.98-30.89L298.98-30.89Q300.72-29.13 301.66-26.94L301.66-26.94L301.66-26.94Q302.59-24.75 302.59-22.56L302.59-22.56L302.59-22.56Q302.59-20.63 301.41-18.67L301.41-18.67L301.41-18.67Q300.22-16.72 298.08-15.16L298.08-15.16L298.08-15.16Q295.94-13.59 292.94-12.63L292.94-12.63L292.94-12.63Q289.94-11.66 286.34-11.66L286.34-11.66L286.34-11.66Q284.47-11.66 282.41-12.03L282.41-12.03L282.41-12.03Q282.53-10.69 283.19-9.72L283.19-9.72L283.19-9.72Q283.84-8.75 284.84-8.13L284.84-8.13L284.84-8.13Q285.84-7.50 287.11-7.20L287.11-7.20L287.11-7.20Q288.38-6.91 289.72-6.91L289.72-6.91L289.72-6.91Q291.22-6.91 292.61-7.17L292.61-7.17L292.61-7.17Q294-7.44 295.28-7.88L295.28-7.88L295.28-7.88Q296.56-8.31 297.75-8.84L297.75-8.84L297.75-8.84Q298.94-9.38 300-9.91L300-9.91L300-9.91Q300.28-9.97 300.48-10.02L300.48-10.02L300.48-10.02Q300.69-10.06 300.88-10.06L300.88-10.06L300.88-10.06Q300.88-10.06 300.86-9.56L300.86-9.56L300.86-9.56Q300.84-9.06 300.84-8.16L300.84-8.16L300.84-8.16Q300.84-7.25 300.83-5.97L300.83-5.97L300.83-5.97Q300.81-4.69 300.78-3.13L300.78-3.13L300.78-3.13Q300.88-2.97 300.91-2.81L300.91-2.81L300.91-2.81Q300.94-2.66 300.94-2.56L300.94-2.56L300.94-2.56Q300.94-2.19 300.25-1.75L300.25-1.75L300.25-1.75Q299.56-1.31 298.45-0.84L298.45-0.84L298.45-0.84Q297.34-0.38 295.92 0.06L295.92 0.06L295.92 0.06Q294.50 0.50 293.03 0.86L293.03 0.86L293.03 0.86Q291.56 1.22 290.19 1.42L290.19 1.42L290.19 1.42Q288.81 1.63 287.78 1.63L287.78 1.63L287.78 1.63Q284.41 1.63 281.23 0.45L281.23 0.45L281.23 0.45Q278.06-0.72 275.61-2.91L275.61-2.91L275.61-2.91Q273.16-5.09 271.69-8.22L271.69-8.22L271.69-8.22Q270.22-11.34 270.22-15.25L270.22-15.25L270.22-15.25Q270.22-19.34 271.63-22.92L271.63-22.92L271.63-22.92Q273.03-26.50 275.58-29.16L275.58-29.16L275.58-29.16Q278.13-31.81 281.66-33.34L281.66-33.34L281.66-33.34Q285.19-34.88 289.44-34.88ZM289.06-26.56L289.06-26.56L289.06-26.56Q287.78-26.56 286.70-26.02L286.70-26.02L286.70-26.02Q285.63-25.47 284.73-24.45L284.73-24.45L284.73-24.45Q283.84-23.44 283.19-22.02L283.19-22.02L283.19-22.02Q282.53-20.59 282.13-18.88L282.13-18.88L282.13-18.88Q285.34-19.44 287.47-20.06L287.47-20.06L287.47-20.06Q289.59-20.69 290.88-21.33L290.88-21.33L290.88-21.33Q292.16-21.97 292.69-22.61L292.69-22.61L292.69-22.61Q293.22-23.25 293.22-23.84L293.22-23.84L293.22-23.84Q293.22-24.41 292.80-24.91L292.80-24.91L292.80-24.91Q292.38-25.41 291.75-25.78L291.75-25.78L291.75-25.78Q291.13-26.16 290.39-26.36L290.39-26.36L290.39-26.36Q289.66-26.56 289.06-26.56ZM329.16-24.09L323.34-24.09L323.34-24.09Q322.91-20.81 322.52-17.55L322.52-17.55L322.52-17.55Q322.13-14.28 322.03-11.44L322.03-11.44L322.03-11.44Q322.03-10.22 322.22-9.41L322.22-9.41L322.22-9.41Q322.41-8.59 322.77-8.13L322.77-8.13L322.77-8.13Q323.13-7.66 323.63-7.45L323.63-7.45L323.63-7.45Q324.13-7.25 324.75-7.25L324.75-7.25L324.75-7.25Q325.75-7.25 326.94-7.55L326.94-7.55L326.94-7.55Q328.13-7.84 329.31-8.31L329.31-8.31L329.31-8.31Q329.69-8.47 329.95-8.55L329.95-8.55L329.95-8.55Q330.22-8.63 330.41-8.63L330.41-8.63L330.41-8.63Q330.72-8.63 330.83-8.34L330.83-8.34L330.83-8.34Q330.94-8.06 331.05-7.36L331.05-7.36L331.05-7.36Q331.16-6.66 331.38-5.47L331.38-5.47L331.38-5.47Q331.59-4.28 332.09-2.47L332.09-2.47L332.09-2.47Q332.13-2.31 332.14-2.20L332.14-2.20L332.14-2.20Q332.16-2.09 332.16-2L332.16-2L332.16-2Q332.16-1.56 331.83-1.38L331.83-1.38L331.83-1.38Q331.50-1.19 330.75-0.94L330.75-0.94L330.75-0.94Q329.47-0.50 328.05-0.05L328.05-0.05L328.05-0.05Q326.63 0.41 325.23 0.78L325.23 0.78L325.23 0.78Q323.84 1.16 322.56 1.39L322.56 1.39L322.56 1.39Q321.28 1.63 320.31 1.63L320.31 1.63L320.31 1.63Q315.09 1.63 312.70-0.97L312.70-0.97L312.70-0.97Q310.31-3.56 310.31-8.88L310.31-8.88L310.31-8.88Q310.31-9.78 310.38-10.73L310.38-10.73L310.38-10.73Q310.44-11.69 310.53-12.72L310.53-12.72L310.53-12.72Q310.84-15.84 311.08-18.64L311.08-18.64L311.08-18.64Q311.31-21.44 311.56-24L311.56-24L308.28-24L308.28-24Q306.59-24 305.84-24.14L305.84-24.14L305.84-24.14Q305.09-24.28 305.09-24.72L305.09-24.72L305.09-24.72Q305.09-24.84 305.41-25.39L305.41-25.39L305.41-25.39Q305.72-25.94 306.20-26.70L306.20-26.70L306.20-26.70Q306.69-27.47 307.25-28.34L307.25-28.34L307.25-28.34Q307.81-29.22 308.33-29.98L308.33-29.98L308.33-29.98Q308.84-30.75 309.22-31.31L309.22-31.31L309.22-31.31Q309.59-31.88 309.69-32L309.69-32L311.91-32L311.91-32Q312.19-34.38 312.36-35.98L312.36-35.98L312.36-35.98Q312.53-37.59 312.64-38.66L312.64-38.66L312.64-38.66Q312.75-39.72 312.84-40.30L312.84-40.30L312.84-40.30Q312.94-40.88 313.05-41.16L313.05-41.16L313.05-41.16Q313.16-41.44 313.33-41.52L313.33-41.52L313.33-41.52Q313.50-41.59 313.78-41.66L313.78-41.66L313.78-41.66Q315.19-41.94 316.50-42.17L316.50-42.17L316.50-42.17Q317.81-42.41 319.13-42.66L319.13-42.66L319.13-42.66Q320.44-42.91 321.80-43.23L321.80-43.23L321.80-43.23Q323.16-43.56 324.63-44L324.63-44L324.63-44Q324.72-44 324.75-44.02L324.75-44.02L324.75-44.02Q324.78-44.03 324.88-44.03L324.88-44.03L324.88-44.03Q325.25-44.03 325.25-43.78L325.25-43.78L325.25-43.72L325.25-43.72Q325.09-42 324.77-38.94L324.77-38.94L324.77-38.94Q324.44-35.88 324.03-32L324.03-32L332.41-32L332.41-32Q332.66-32 332.89-31.83L332.89-31.83L332.89-31.83Q333.13-31.66 333.13-31.25L333.13-31.25L333.13-31.25Q333.13-31.09 332.75-30.13L332.75-30.13L332.75-30.13Q332.38-29.16 331.69-27.59L331.69-27.59L330.56-25.06L330.56-25.06Q330.34-24.59 330.11-24.38L330.11-24.38L330.11-24.38Q329.88-24.16 329.16-24.09L329.16-24.09Z" fill="#ffd5af"></path></g></g><style>text {
  font-size: 64px;
  font-family: Arial Black;
  dominant-baseline: central;
  text-anchor: middle;
}</style></svg>